<?xml version="1.0" standalone="no"?><!DOCTYPE svg PUBLIC "-//W3C//DTD SVG 1.1//EN" "http://www.w3.org/Graphics/SVG/1.1/DTD/svg11.dtd"><svg t="1690547351213" class="icon" viewBox="0 0 1024 1024" version="1.1" xmlns="http://www.w3.org/2000/svg" p-id="1324" xmlns:xlink="http://www.w3.org/1999/xlink" width="200" height="200"><path d="M597.805883 955.037538A34.500923 34.500923 0 0 1 598.63296 1024H427.979422a34.500923 34.500923 0 0 1-0.827077-68.962462h170.614153z m46.434462-97.28a34.500923 34.500923 0 0 1 0.827077 68.962462H379.890806a34.500923 34.500923 0 0 1-0.827077-68.962462h265.294769zM511.986806 0a396.603077 396.603077 0 0 1 218.033231 727.827692l-2.56 11.815385-6.971077 32.098461a69.001846 69.001846 0 0 1-66.323692 54.547693H369.25696a69.001846 69.001846 0 0 1-67.662769-55.453539l-3.190154-15.753846a239.104 239.104 0 0 0-6.577231-28.553846A396.603077 396.603077 0 0 1 511.986806 0zM439.834191 154.466462c-116.657231 21.779692-174.276923 101.060923-181.169231 226.146461a34.500923 34.500923 0 0 0 68.883692 3.938462c5.277538-95.586462 42.417231-146.747077 124.967385-162.146462a34.500923 34.500923 0 1 0-12.642462-67.820308z" p-id="1325" fill="#2c2c2c"></path></svg>